<svg xmlns="http://www.w3.org/2000/svg" viewBox="0 0 50 42.2">
    <path fill="#fef330" d="M38.77.17a12.95 12.95 0 00-2.1-.17A13.25 13.25 0 0025 7.17 13.25 13.25 0 0013.32 0a12.95 12.95 0 00-2.09.17C5.95.75 1.64 4.95.38 10.48h49.24C48.36 4.95 44.05.75 38.77.17z" />
    <path fill="#fff" d="M49.98 14.54l.01-.4.01-.3v-.02-.3c0-.13 0-.27-.02-.4V13a14.91 14.91 0 00-.36-2.52H.38A14.91 14.91 0 00.03 13l-.01.12-.01.4-.01.3v.32c0 .14 0 .27.02.4a14.64 14.64 0 001.8 6.43h46.36a14.64 14.64 0 001.8-6.42z" />
    <path fill="#9b59d0" d="M45.48 24.42a13.53 13.53 0 002.7-3.45H1.82a13.53 13.53 0 002.7 3.45l8.1 7.03h24.76z" />
    <path d="M37.38 31.45H12.62L24.88 42.1h.25l12.25-10.65z" />
</svg>
