<svg xmlns="http://www.w3.org/2000/svg" viewBox="0 0 50 42.2">
    <path fill="#eb2c3b" d="M38.77.17a12.95 12.95 0 00-2.1-.17 13.24 13.24 0 00-11.6 7.05h23.3a12.5 12.5 0 00-9.6-6.88zM1.64 7.05h23.3A13.24 13.24 0 0013.31 0a12.95 12.95 0 00-2.09.17 12.5 12.5 0 00-9.6 6.88z" />
    <path fill="#ef8031" d="M.03 13l-.01.12-.01.4-.01.3v.27h50v-.27-.3c0-.13 0-.27-.02-.4V13a14.67 14.67 0 00-1.62-5.96h-23.3c-.01.05-.04.09-.06.13l-.07-.13H1.63A14.67 14.67 0 00.04 13z" />
    <path fill="#fde92b" d="M0 14.15c0 .13 0 .26.02.4a14.63 14.63 0 001.9 6.59h46.17a14.63 14.63 0 001.9-6.6v-.45H.01z" />
    <path fill="#00a055" d="M4.52 24.42l4.34 3.76h32.28l4.34-3.76a13.53 13.53 0 002.6-3.28H1.92a13.53 13.53 0 002.61 3.28z" />
    <path fill="#00a8de" d="M16.97 35.23h16.06l8.11-7.05H8.86l8.11 7.05z" />
    <path fill="#9c298c" d="M25 42.2l8.03-6.97H16.97L25 42.2z" />
</svg>
