<svg xmlns="http://www.w3.org/2000/svg" viewBox="0 0 50 42.2">
    <defs>
        <style>
            .cls-1 { fill: #5cc8ec }
            .cls-2 { fill: #f3a4b4 }
            .cls-3 { fill: #fefefe }
        </style>
    </defs>
    <path class="cls-1" d="M38.77.17a12.95 12.95 0 00-2.1-.17A13.25 13.25 0 0025 7.17 13.25 13.25 0 0013.32 0a12.95 12.95 0 00-2.09.17A12.68 12.68 0 001.04 8.34h47.91A12.68 12.68 0 0038.77.17z" />
    <path class="cls-2" d="M1.04 8.34A14.79 14.79 0 00.02 13v.12l-.01.4-.01.3v.32c0 .14 0 .27.02.4a15.13 15.13 0 00.28 2.27h49.4a15.13 15.13 0 00.28-2.26v-.4l.02-.31v-.02l-.01-.3-.01-.4V13a14.79 14.79 0 00-1.03-4.66z" />
    <path class="cls-3" d="M4.52 24.42l1 .86h38.96l1-.86a14.01 14.01 0 004.23-7.6H.3a14.01 14.01 0 004.22 7.6z"/>
    <path class="cls-2" d="M15.27 33.75h19.46l9.75-8.47H5.52l9.75 8.47z" />
    <path class="cls-1" d="M25 42.2l9.73-8.45H15.27L25 42.2z" />
</svg>
