<svg xmlns="http://www.w3.org/2000/svg" viewBox="0 0 178.35 179.74">
    <path fill="currentColor" fill-rule="evenodd" d="M90.8 0a87.57 87.57 0 00-75 132.77L0 179.74l48.47-15.52A87.56 87.56 0 1090.8 0zm0 160.44a72.48 72.48 0 01-40.1-12.05l-28.02 8.97 9.1-27.07a72.86 72.86 0 1159 30.15zm41.04-53c-2.2-1.2-12.97-7.01-15-7.83s-3.5-1.25-5.07.93-6.05 7.05-7.4 8.5-2.67 1.57-4.87.37a61.03 61.03 0 01-17.55-11.77A67.46 67.46 0 0170.1 81.7c-1.22-2.29 0-3.45 1.15-4.52 1.04-.97 2.33-2.53 3.5-3.8a15.29 15.29 0 002.38-3.64 4.11 4.11 0 00-.05-3.92c-.51-1.13-4.57-12.3-6.26-16.84s-3.59-3.87-4.9-3.92-2.78-.3-4.27-.35a8.21 8.21 0 00-6.06 2.57c-2.14 2.16-8.11 7.35-8.52 18.35s7.2 21.92 8.25 23.45 14.53 25.37 36.92 35.18 22.5 6.8 26.6 6.59 13.43-4.91 15.5-10.06 2.22-9.62 1.7-10.57-2-1.57-4.2-2.77z" />
</svg>
