<svg xmlns="http://www.w3.org/2000/svg" viewBox="0 0 308.34 107.82">
  <path fill="#c1768d" stroke="#c1768d" stroke-miterlimit="22.93" stroke-width=".22" d="M37.96 93.49v.64h-3.12v10.62h-.66V94.12H31.1v-.63zM52.91 104a3.23 3.23 0 0 1-1.02.63 3.31 3.31 0 0 1-1.23.23 3.13 3.13 0 0 1-1.26-.26 3.35 3.35 0 0 1-1.03-.68 3.1 3.1 0 0 1-.68-1.01 3.26 3.26 0 0 1 .01-2.51 3.35 3.35 0 0 1 .69-1.03 3.2 3.2 0 0 1 1-.7 3.07 3.07 0 0 1 1.26-.25 2.65 2.65 0 0 1 1.74.6 3.58 3.58 0 0 1 1.08 1.53l-1.24.49-1.37.56-1.4.56-1.28.52a2.63 2.63 0 0 0 .96 1.19 2.59 2.59 0 0 0 1.5.45 2.7 2.7 0 0 0 1.03-.19 2.54 2.54 0 0 0 .83-.53l.41.4zm-.15-3.62a2.44 2.44 0 0 0-.83-1.02 2.19 2.19 0 0 0-1.29-.38 2.56 2.56 0 0 0-1.04.22 2.76 2.76 0 0 0-.84.57 2.65 2.65 0 0 0-.57.85 2.6 2.6 0 0 0-.2 1.03 2.24 2.24 0 0 0 .02.33l.05.32 1.15-.47 1.22-.5 1.2-.48 1.13-.46zm15.28-1.27a3.15 3.15 0 0 0-.95.17 2.52 2.52 0 0 0-.8.46 2.22 2.22 0 0 0-.55.7 1.95 1.95 0 0 0-.21.9v3.4h-.54V98.6h.46v.3l.01.5.01.5.01.29a2.81 2.81 0 0 1 1.1-1.26 3.05 3.05 0 0 1 1.56-.47l-.1.66zm10.47 2.56a3.13 3.13 0 0 1 .25-1.26 3.35 3.35 0 0 1 .69-1.02 3.2 3.2 0 0 1 1.01-.7 3.07 3.07 0 0 1 1.25-.25 3.02 3.02 0 0 1 .91.13 2.98 2.98 0 0 1 .78.38 3.06 3.06 0 0 1 .61.55 2.48 2.48 0 0 1 .41.66c0-.27 0-.53.02-.8l.04-.78h.48v6.17h-.54v-1.58a2.58 2.58 0 0 1-.99 1.2 2.95 2.95 0 0 1-1.72.5 3.13 3.13 0 0 1-1.27-.26 3.28 3.28 0 0 1-1-.69 3.15 3.15 0 0 1-.68-1.01 3.12 3.12 0 0 1-.25-1.23zm.54-.01a2.62 2.62 0 0 0 1.63 2.45 2.75 2.75 0 0 0 2.96-.56 2.6 2.6 0 0 0 .57-.85 2.63 2.63 0 0 0 .21-1.04 2.7 2.7 0 0 0-.2-1.05 2.57 2.57 0 0 0-.58-.86 2.73 2.73 0 0 0-1.91-.77 2.7 2.7 0 0 0-1.05.2 2.58 2.58 0 0 0-1.42 1.43 2.7 2.7 0 0 0-.21 1.05zm24.06 0a2.78 2.78 0 0 0-.2-1.05 2.53 2.53 0 0 0-.56-.86 2.68 2.68 0 0 0-.84-.56 2.62 2.62 0 0 0-1.05-.2 2.69 2.69 0 0 0-1.05.2A2.58 2.58 0 0 0 98 100.6a2.68 2.68 0 0 0-.2 1.05 2.62 2.62 0 0 0 .2 1.05 2.65 2.65 0 0 0 .56.84 2.62 2.62 0 0 0 .86.56 2.69 2.69 0 0 0 1.05.21 2.62 2.62 0 0 0 1.05-.2 2.68 2.68 0 0 0 .84-.57 2.55 2.55 0 0 0 .55-.84 2.72 2.72 0 0 0 .2-1.05zm.59 0a3.23 3.23 0 0 1-.25 1.26 3.1 3.1 0 0 1-1.7 1.7 3.26 3.26 0 0 1-1.27.24 2.96 2.96 0 0 1-1.68-.48 2.7 2.7 0 0 1-1.03-1.2 7.8 7.8 0 0 0 .01.81v3.73h-.55v-9.13h.54v.62l.02.5v.45a3.02 3.02 0 0 1 .42-.67 2.76 2.76 0 0 1 .61-.55 3.13 3.13 0 0 1 .78-.36 3 3 0 0 1 .91-.14 3.14 3.14 0 0 1 2.94 1.94 3.28 3.28 0 0 1 .25 1.28zm16.76 2.34a3.22 3.22 0 0 1-1.01.63 3.32 3.32 0 0 1-1.24.23 3.14 3.14 0 0 1-1.26-.26 3.34 3.34 0 0 1-1.02-.68 3.11 3.11 0 0 1-.69-1.01 3.27 3.27 0 0 1 0-2.51 3.35 3.35 0 0 1 .7-1.03 3.2 3.2 0 0 1 1-.7 3.07 3.07 0 0 1 1.26-.25 2.65 2.65 0 0 1 1.74.6 3.57 3.57 0 0 1 1.08 1.52l-1.24.5-1.38.56-1.38.56-1.3.52a2.62 2.62 0 0 0 .97 1.19 2.6 2.6 0 0 0 1.5.45 2.71 2.71 0 0 0 1.03-.2 2.54 2.54 0 0 0 .82-.52l.42.4zm-.14-3.62a2.43 2.43 0 0 0-.84-1.02 2.19 2.19 0 0 0-1.28-.38 2.56 2.56 0 0 0-1.05.22 2.75 2.75 0 0 0-.84.57 2.66 2.66 0 0 0-.57.84 2.6 2.6 0 0 0-.2 1.03 2.23 2.23 0 0 0 .02.34l.06.31 1.14-.47 1.22-.49 1.21-.48 1.13-.47zm17.27 4.42h-.45l-.05-1.66a2.85 2.85 0 0 1-1.03 1.26 2.81 2.81 0 0 1-1.63.48 1.83 1.83 0 0 1-1.96-1.85v-4.44h.54v4.35a1.47 1.47 0 0 0 .41.95 1.56 1.56 0 0 0 1.08.45 2.7 2.7 0 0 0 1.78-.65 2.14 2.14 0 0 0 .75-1.66v-3.44h.56v6.21zm12.74-8.93h.56v2.8h1.95v.5h-1.95v5.57h-.56v-5.56h-1.35v-.5h1.35v-2.8zm13.15 5.8a3.13 3.13 0 0 1 .25-1.26 3.35 3.35 0 0 1 .69-1.02 3.2 3.2 0 0 1 1.01-.7 3.07 3.07 0 0 1 1.25-.25 3.02 3.02 0 0 1 .9.13 2.98 2.98 0 0 1 .79.38 3.06 3.06 0 0 1 .61.55 2.48 2.48 0 0 1 .4.66c0-.27 0-.53.03-.8s.02-.53.04-.78h.48v6.17h-.54v-1.58a2.58 2.58 0 0 1-.99 1.2 2.95 2.95 0 0 1-1.72.5 3.12 3.12 0 0 1-1.27-.26 3.27 3.27 0 0 1-1-.69 3.15 3.15 0 0 1-.68-1.01 3.12 3.12 0 0 1-.25-1.23zm.54-.01a2.62 2.62 0 0 0 1.62 2.45 2.75 2.75 0 0 0 2.97-.56 2.58 2.58 0 0 0 .57-.85 2.63 2.63 0 0 0 .2-1.04 2.7 2.7 0 0 0-.2-1.05 2.56 2.56 0 0 0-.57-.86 2.73 2.73 0 0 0-1.91-.77 2.7 2.7 0 0 0-1.05.2 2.58 2.58 0 0 0-1.42 1.43 2.7 2.7 0 0 0-.21 1.05zm28.87 3.09V93.49h6.25v.62h-5.58v4.81h4.95v.62h-4.95v5.21zm18.23 0h-.56V92.67h.56v12.08zm11.85-3.1a3.12 3.12 0 0 1 .26-1.25 3.25 3.25 0 0 1 1.72-1.72 3.24 3.24 0 0 1 2.51 0 3.25 3.25 0 0 1 1.72 1.72 3.14 3.14 0 0 1 .26 1.26 3.07 3.07 0 0 1-.26 1.25 3.2 3.2 0 0 1-.69 1.01 3.34 3.34 0 0 1-1.03.68 3.18 3.18 0 0 1-1.27.26 3.22 3.22 0 0 1-1.26-.25 3.13 3.13 0 0 1-1.02-.67 3.25 3.25 0 0 1-.68-1.02 3.1 3.1 0 0 1-.26-1.26zm.56 0a2.67 2.67 0 0 0 3.7 2.46 2.74 2.74 0 0 0 .86-.56 2.62 2.62 0 0 0 .78-1.9 2.64 2.64 0 0 0-.21-1.04 2.7 2.7 0 0 0-.57-.85 2.65 2.65 0 0 0-1.9-.78 2.63 2.63 0 0 0-1.05.2 2.58 2.58 0 0 0-.84.58 2.74 2.74 0 0 0-.57.85 2.64 2.64 0 0 0-.2 1.05zm20.74-2.54a3.13 3.13 0 0 0-.94.17 2.54 2.54 0 0 0-.8.46 2.22 2.22 0 0 0-.56.7 1.95 1.95 0 0 0-.21.9v3.4h-.54V98.6h.46v.3l.02.5v.5l.01.29a2.82 2.82 0 0 1 1.11-1.26 3.05 3.05 0 0 1 1.55-.47l-.1.66zm10.47 2.56a3.13 3.13 0 0 1 .26-1.26 3.36 3.36 0 0 1 .68-1.02 3.2 3.2 0 0 1 1.01-.7 3.08 3.08 0 0 1 1.25-.25 3.02 3.02 0 0 1 .91.13 2.98 2.98 0 0 1 .78.38 3.05 3.05 0 0 1 .62.55 2.45 2.45 0 0 1 .4.66c0-.27 0-.53.02-.8l.05-.78h.47v6.17h-.54v-1.58a2.57 2.57 0 0 1-.99 1.2 2.95 2.95 0 0 1-1.72.5 3.12 3.12 0 0 1-1.26-.26 3.28 3.28 0 0 1-1.02-.69 3.17 3.17 0 0 1-.67-1.01 3.13 3.13 0 0 1-.25-1.23zm.54-.01a2.62 2.62 0 0 0 1.63 2.45 2.75 2.75 0 0 0 2.96-.56 2.6 2.6 0 0 0 .57-.85 2.62 2.62 0 0 0 .21-1.04 2.67 2.67 0 0 0-.2-1.05 2.57 2.57 0 0 0-.58-.86 2.72 2.72 0 0 0-.86-.56 2.77 2.77 0 0 0-2.1 0 2.59 2.59 0 0 0-1.42 1.42 2.7 2.7 0 0 0-.2 1.05zm18.8 3.09h-.56V92.67h.56v12.08z"/>
  <path fill="#7d2c53" fill-rule="evenodd" d="M291.58 3.74c1.5-.33 2.71.16 2.7-2.14L289.5.2c-.76 1.53.15 2.43 1.26 3.18l-1.78 5.77c-1.05.07-1.72-.46-2.68-.22-.06.75-.18 1 .55 1.61 1.72 1.43.21.25 1.69.38a53.42 53.42 0 0 1-2.92 8.09.42.42 0 0 0 .04-.11l.04-.12c.01-.05.05-.23.05-.3l-.12-5.87c-.37-7.29.64-2.73 1.49-6.36a6.18 6.18 0 0 0-3.97-.17c-.07 1.28.4 1.3 1.46 2.23l.2 8.42c-.53-.74-2.92-11.85-3.07-13.27 1.07-1.48 2.42-1.17 1.23-3.46l-1.9.44a2.2 2.2 0 0 1-.6.07l-2.15.33c-.1 1.68.98 2.02 2.74 2.63-.12 2.28 1.06 3.77.87 5.65-1 .45-2.07.37-2.62 1.3 2.34 2.14 1.52-.1 2.7 3.55a20.06 20.06 0 0 1 1.28 4.18c-.96-1.97-2.15-3.8-3.24-5.77-1.98-3.6-2.13-2.9-1.5-4.4.76-1.81.2-2.66-1.84-1.48l-.19.11-.95.48a6.15 6.15 0 0 1-.83.32c.91 2.29 2 .53 3.12 2.32.64 1.03 1.3 2.36 1.94 3.5.76 1.35 3.3 5.36 3.58 6.9-1.5-1.1-9.52-9.87-11.38-11.83.52-1.77.97-2.8-.58-3.67l-.67 1.13-.06.1c-.56.69-.5-.18-.13 1.36-.9-.54-.4-.38-1.21-.71a7.67 7.67 0 0 1-.76.8c-.45.42 0-.15-.63.54 1.73 1.66 1.66.88 3.94.8a21.64 21.64 0 0 0 3.84 4.16c-3.11 3.1-.32 1.83 1.33 2.97l5.45 5.07-9.25-5.26c-.86-1.51.7-1.54-1.36-2.59-.03.04-.02.12-.02.13l-.02.13v.1l-.04.16-.05.06a.79.79 0 0 0-.28.27l-.85 1.6a4.33 4.33 0 0 0 .02.7c1.96.83.59-.83 3.1.36 2.29 1.07 6.98 3.55 8.29 5.02l-15.74-4.6c-.34-1.3-.8-3.44-2.45-2.59l1.22.91c.06-.05.13.11.2.11l-1.66-.16-.76 2.38 1.15.77-1.38-.04c1.21 1.53 2.47.67 3.5-.82l5.74 1.77a6.12 6.12 0 0 0-.21 2.45c1.06.13.84-.04 1.87-1.02l5.3 1.32c-1.13.38-1.57.19-3.26.08-1.61-.1-4.97.42-6.2-.54-.8-.63-.57-1.82-2.14-1.46-.59.3-.35 1.23-.36 1.83a11.82 11.82 0 0 0 .06 2c1.72.42 1.77-.42 2.54-1.39 1.29-.3 9.8.11 11.65.5-1.05 1.04-2.43.9-3.91 1.19-2.19.43-10.3 2.7-11.43 2.36-1-.73-1.85-2.4-3.4-1.2 1.15 1.2.03-.06 1.8.3-1.3.52-.46-.37-1.54.7l.1 1.03a2.88 2.88 0 0 0 1.76-.27c-.32.43-1.24.54-1.18 1.19l.08.27a.81.81 0 0 0 .88.38c-1.65.68-.49.93-.48.95 2-.33 1.56-.78 2.26-2.6l5.44-1.13a2.37 2.37 0 0 1 .13.21l.13.2c.45.81.56 1.96 1.25 2.6 2.6-1.64-1.32-.8 3.84-2.97a20.83 20.83 0 0 1 4.42-1.46c-1.68 1.28-3.29 2.15-5.3 3.43-4.62 2.94-2.04 1.64-5.64 1.41a3.35 3.35 0 0 0 2.06 3.64c1.7-1.44.2-1.78 1.44-2.78.44-.36 1.8-1.12 2.51-1.58a44.6 44.6 0 0 1 4.9-2.9c-.9 1-1.84 1.72-2.73 2.58l-7.97 7.63c-1.16-.12-4.5-1.15-3.15 1.02l1.38 1.4c.7.74.95 1.47 1.89 1.64 1.38-1.56.73-1.96.48-3.44 2.36-2.61 6.93-6.5 9.48-8.85-1.22 2.23-3.5 4.8-5.06 6.95-2.6 3.59-5.24 6.8-7.96 10.01q-2.7 2.88-4.88 5.53a77.34 77.34 0 0 0-4.87 6.54c-.34.46-.64.91-.91 1.35s-.56.87-.85 1.29a73.11 73.11 0 0 0-2.83 5.15q-.88 1.83-1.54 3.4-.6 1.4-1 2.55l-.04.02c-1.09.88-2.13 1.66-3.14 2.33a19.25 19.25 0 0 1-2.51 1.5 2.85 2.85 0 0 1-1.89.44.54.54 0 0 1-.37-.56 3.78 3.78 0 0 1 .12-.95 8.86 8.86 0 0 1 .57-1.38A6.63 6.63 0 0 1 244 71q.34-.6.66-1.22l.47-.73.41-.6q.38-.56.85-1.32l.9-1.44.83-1.29.56-.91a8.44 8.44 0 0 0 1.38-3.08 3.74 3.74 0 0 0-.18-2.3 2.3 2.3 0 0 0-1.45-1.22 4.1 4.1 0 0 0-2.51.19 10.15 10.15 0 0 0-3.24 1.85 42.43 42.43 0 0 0-3.17 2.86q2.01-2.95 4.05-5.65t3.74-4.78q2.01-2.45 3.9-4.59a3.8 3.8 0 0 0 .85-1.41 2.29 2.29 0 0 0 .06-1.04 1.31 1.31 0 0 0-.4-.72l-.57-.47a.88.88 0 0 0-.82.19 95.26 95.26 0 0 0-8.92 10.27 80.86 80.86 0 0 0-5.78 8.9 51.1 51.1 0 0 0-3.3 7.06l-.44 1.23q-1.51 1.26-2.9 2.2a25.5 25.5 0 0 1-2.41 1.47 4.47 4.47 0 0 1-1.92.66c-.54 0-.82-.29-.82-.88a6.1 6.1 0 0 1 .75-2.57 31.98 31.98 0 0 1 1.66-2.92c.6-.94 1.15-1.76 1.65-2.48a4.2 4.2 0 0 0 .75-1.32.46.46 0 0 0-.16-.4 1.45 1.45 0 0 1-.28-.23 3.73 3.73 0 0 1-.44-.12h-.19a13.12 13.12 0 0 0 .88-4.2 3.43 3.43 0 0 0-.72-2.3 2.7 2.7 0 0 0-2.17-.84 9.33 9.33 0 0 0-5 2.04 23.82 23.82 0 0 0-5.63 5.87 27.27 27.27 0 0 0-2.99 5.27 9.96 9.96 0 0 0-.78 3.39 3.96 3.96 0 0 0 .22 1.45 2.65 2.65 0 0 0 .53.87 2 2 0 0 0 .77.57 2.34 2.34 0 0 0 .94.19 4.88 4.88 0 0 0 2.11-.54 14 14 0 0 0 2.24-1.38 32.23 32.23 0 0 0 4.03-3.61 6.4 6.4 0 0 0-.38 2.14 4.63 4.63 0 0 0 .6 2.35 2.17 2.17 0 0 0 2.06 1.04 5.03 5.03 0 0 0 2.16-.6 20.31 20.31 0 0 0 2.36-1.35c.76-.5 1.44-1 2.04-1.48l.41-.32q-.26.88-.4 1.55a1.07 1.07 0 0 1-.04.22.43.43 0 0 0 .03.28 1.84 1.84 0 0 0 .95 1.38 1.94 1.94 0 0 0 .44.13c.2.04.35-.13.44-.5a12.24 12.24 0 0 1 .56-2.45 23.28 23.28 0 0 1 1.13-2.77c.34-.63.75-1.33 1.23-2.1a22.26 22.26 0 0 1 1.76-2.42 31.4 31.4 0 0 1 2.35-2.54 21.03 21.03 0 0 1 3.02-2.42c.59-.42 1.13-.78 1.63-1.07a9.72 9.72 0 0 1 1.38-.63 1.2 1.2 0 0 1 1.07 0 .6.6 0 0 1 .25.32 1.38 1.38 0 0 1-.3 1.06l-1.1 1.64a62.93 62.93 0 0 0-3.58 6.22 15 15 0 0 0-1.17 2.95 8.9 8.9 0 0 0-.22 1.64 5.16 5.16 0 0 0 .15 1.54 2.57 2.57 0 0 0 .66 1.19 2.02 2.02 0 0 0 1.35.53 4.74 4.74 0 0 0 2.2-.5 15.95 15.95 0 0 0 2.42-1.35c.78-.52 1.48-1.03 2.1-1.54l.63-.5a4.81 4.81 0 0 0-.19 1.63 2.81 2.81 0 0 0 .22 1.1 1.8 1.8 0 0 0 .73.85 2.56 2.56 0 0 0 1 .31 4.75 4.75 0 0 0 2.2-.5 16 16 0 0 0 2.42-1.35c.77-.52 1.47-1.03 2.1-1.54l.98-.79a5.52 5.52 0 0 0 .15 1.55 3.33 3.33 0 0 0 1.57 2.13 4.87 4.87 0 0 0 2.2.38 8.6 8.6 0 0 0 2.4-.47 13.51 13.51 0 0 0 2.38-1.1c.8-.46 1.57-.94 2.32-1.45a32.06 32.06 0 0 0 3-2.32q-.65 1.92-.98 3.14a1.37 1.37 0 0 0 0 .57 2.26 2.26 0 0 0 1 1.44 1.93 1.93 0 0 0 .44.13c.21.04.35-.13.44-.5a16.95 16.95 0 0 1 .7-2.7 42.23 42.23 0 0 1 2.5-4.15 44.17 44.17 0 0 1 6.29-7.1 28.1 28.1 0 0 1 1.95-1.57 7.61 7.61 0 0 1 1.54-.91 1.1 1.1 0 0 1 1.22.03v.66a2.6 2.6 0 0 1-.12.72 7.8 7.8 0 0 1-.38 1.38 2.92 2.92 0 0 1-.53.63q-.35.32-.66.57c-.26.16-.53.35-.82.56a3.44 3.44 0 0 0-1 1.07 1.9 1.9 0 0 0-.28 1.07 1.32 1.32 0 0 0 .31.82.93.93 0 0 0 .85.25 1.25 1.25 0 0 0 .91-.41c.27-.27.51-.53.72-.79.09-.08.25-.25.47-.53l.73-.88.75-.94a4.98 4.98 0 0 0 .57-.85q2.07-3.4 1.31-5.09t-3.77-.57a7.34 7.34 0 0 0-1.91 1.1 21.27 21.27 0 0 0-2.14 1.89q-1.1 1.1-2.23 2.36c-.75.84-1.47 1.67-2.14 2.5a36.93 36.93 0 0 1 1.64-2.5c.34-.55.78-1.28 1.32-2.2a3.96 3.96 0 0 0 .53-1.58 1.92 1.92 0 0 0-.19-1.03 1.37 1.37 0 0 0-.6-.6l-.63-.32a.7.7 0 0 0-.62.25c-.04 0-.07.04-.07.13l-.06.06c-.12.21-.25.41-.38.6l-.37.6-.73 1.13-.66 1.07a50.96 50.96 0 0 0-4 7.93 25.76 25.76 0 0 1-2.94 2.53 24.76 24.76 0 0 1-3.7 2.3 13.02 13.02 0 0 1-3.27 1.16 3.5 3.5 0 0 1-2.3-.16 1.5 1.5 0 0 1-.69-1.7 7.54 7.54 0 0 1 .88-2.45 18.23 18.23 0 0 1 2.01-3.27l.07-.12a11.4 11.4 0 0 0 4.8-.44 11.1 11.1 0 0 0 3.05-1.57 7.25 7.25 0 0 0 2.01-2.52 7.33 7.33 0 0 0 .76-2.48 3.12 3.12 0 0 0-.26-1.6 2.24 2.24 0 0 0-1-1.07 4.13 4.13 0 0 0-2.04-.34 6.4 6.4 0 0 0-2.07.56 9.4 9.4 0 0 0-2.01 1.26 16.57 16.57 0 0 0-1.8 1.67 27.48 27.48 0 0 0-3.9 5.02 16 16 0 0 0-2.35 5.34l-.03.2c-1.1.87-2.14 1.65-3.14 2.32a19.32 19.32 0 0 1-2.52 1.5 2.85 2.85 0 0 1-1.88.45.54.54 0 0 1-.4-.63 4.33 4.33 0 0 1 .21-1.07l.19-.57q.57-1.37 1.32-3.01a49.42 49.42 0 0 1 2.51-4.53q1.45-2.32 3.02-4.58c1.3-1.89 2.6-3.66 3.9-5.31s2.47-3.14 3.52-4.43q1.82-2.2 3.52-4.15l.22-.3a76.68 76.68 0 0 0 6.8-9.68l6.63-9.96-4.39 15.05c-1.32.62-2.76-.04-2.64 2.09.63.23.8-.6.8-.65-.28 1.34-.32 1.06.96 1.5l1.04-1.34c-.32 1.53-.2.76.13 1.56 1.63.18.6.7 1.32-.5-1.28 1 .14 1 .39 1.18.94-2.53-.1-1.85-1.14-3.58l1.76-5.67 2.35.43c.75-2.21-1.14-.26-.51-4a15.4 15.4 0 0 1 .74-3.68c.37-.82.22-.52.57-.7a49.8 49.8 0 0 0 .07 5.54c.29 5.58-.7 2.38-1.45 5.14a3.77 3.77 0 0 0 4.04.34c-.57-2-1.4-1.13-1.67-2.6l-.1-9.6c-.26.98 2.77 12.72 2.99 15.07-1.17 1.17-2.55 1.65-1.08 3.5l4.45-.89c.1-1.37-.7-1.8-1.71-2.36l-.24-.12-.66-.42a26.78 26.78 0 0 1-.82-5.47l1.5-.37c.98-.28.33.15 1.14-.52-.6-1.15-2.06-.55-3.36-5.84a3.11 3.11 0 0 1-.18-1.01c.74.85 4.18 6.5 4.44 7.78.3 1.46-1.4 1.47-.2 3 .53.61 3.3-.96 3.73-1.56-.86-1.21-1.22-.98-2.95-1.51a12.77 12.77 0 0 0-1.41-2.83c-.64-1.02-.89-1.75-1.5-2.77a47.66 47.66 0 0 1-2.84-5.57l5.64 5.99a77.99 77.99 0 0 0 5.92 6.15c-1.02 2.06-1.17 2.63.62 3.65-.26-1.06-.25-.15-.5-1.31a1.17 1.17 0 0 0 .51.09l.13-.04c.03 0 .1-.04.12-.05l3.05-1.92c-1.47-1.74-2.27-.85-4.02-.86-.62-1.37-3.93-3.33-3.3-4.79.6-1.39.55.35 1.23-1.54-1.13-.83-1.62.55-4.43-2.08a24.7 24.7 0 0 1-3.7-3.55c1.97.8 4.03 2.36 6.1 3.4 5.63 2.87 1.58 3.69 4.65 4.24l1.55-3.14c-1.98-.75-1.42-.38-2.83.18-2.54-1.43-7.83-4.12-9.7-5.67.76-.13 14.05 3.94 15.94 4.6.77 1.39.1 2.45 2.35 3.06l.79-2.97a1.97 1.97 0 0 0-.48-.51 2.41 2.41 0 0 0-.47-.24l1.44.05a3.54 3.54 0 0 1-.97-.6l.12-.6a.37.37 0 0 0 .03-.2c-1.34.09-1.66.15-2.33 1.46a39.79 39.79 0 0 1-4.63-1.22c-1.78-.69-1-1.52-.57-3.37 1.54.29 1.56.15 2.34 1.21 2.03 2.78 2.29-1.04 2.04-2.93-1.62-.47-1.86.49-2.62 1.41-1.21.14-11.46-.28-12.6-.73 1.11-.35 15.32-3.63 16.28-3.21.84.37 1.46 1.9 2.87 1.46.9-.3.3-1.45.2-2.35-1.43-.42-.35-.1-1.63.02.6-.45.25-.27 1.22-.37a4.84 4.84 0 0 0-.1-.22l-.08-.2-.07-.18c-.38-.79.87-.66-.82-.68 2-.84.5-1 .49-1-2.03.21-1.68.87-2.3 2.9-2.2-.02-3.4.69-5.41.89l-.42-.85c-.38-.9-.5-1.8-1.33-2.17-1.37 1.17-.21 1.41-1.66 2.18a30.46 30.46 0 0 1-6.67 2.25c1.56-1.1 2.87-1.9 4.27-2.75 1.37-.84 3.22-1.7 4.22-2.82a6.74 6.74 0 0 0 2.66.55c.48-1.05-.85-3.35-2.08-3.55-1.82 2.18.31 1.68-1.78 2.94l-7.77 4.88c2.86-2.2 5.87-5.49 8.69-8.12.74-.7 2.24-2.1 2.76-2.73 3.08.88 4.72.7 2.23-1.97-.71-.77-.86-1.19-1.99-1.3.19.86.4.42.12-.3l-.25-.39c-1.76 1.3-.9 2.38-.7 3.53-1.98 2.02-10.54 10.28-12 11.07l6.62-10.9c1.58.08 1.96.46 2.52-1.2L293 5.96c-.67 1.88-.27 1.81.3 3-.9 1.57-6.38 10.33-6.45 10.9l4.73-16.1zM305 65.38c.3-.13.44-.15.44-.07s-.1.22-.28.41-.41.39-.66.6-.44.35-.57.44c-.34.16-.78.36-1.35.6s-1.16.45-1.79.69-1.25.45-1.85.66-1.13.38-1.54.5c0 .04-.1.48-.32 1.32a9.95 9.95 0 0 1-1.25 2.76 9.67 9.67 0 0 1-2.67 2.73 7.84 7.84 0 0 1-4.62 1.23 6.88 6.88 0 0 1-1.26-.13 4.49 4.49 0 0 1-1.29-.44 3.05 3.05 0 0 1-.97-.79 1.34 1.34 0 0 1-.2-1.22 3.66 3.66 0 0 1 .42-1.1 4.61 4.61 0 0 1 1.35-1.41 16.17 16.17 0 0 1 2.8-1.6 26.97 26.97 0 0 1 4.74-1.6l.13-.63.12-.62a4.29 4.29 0 0 0 .16-.82l.1-.7a3.97 3.97 0 0 0 .04-.56v-1c0-.26 0-.5-.02-.73l-.02-.35a11.75 11.75 0 0 1 .31-2.92 15.32 15.32 0 0 1 1.16-3.45 10.15 10.15 0 0 1 2.01-2.89 3.99 3.99 0 0 1 2.93-1.22 2.35 2.35 0 0 1 1.16.34c.4.23.53.75.4 1.54a5.33 5.33 0 0 1-.62 1.73 21.52 21.52 0 0 1-1.16 1.85 23.77 23.77 0 0 1-2.8 3.33 3.36 3.36 0 0 1-.03.53l-.06.63-.06 1.03-.09 1.64v.7a8.55 8.55 0 0 1-.14 1.62c.92-.33 1.9-.66 2.92-.97a24.23 24.23 0 0 0 2.93-1.1l1.5-.56zm-12.46 7.45a7.18 7.18 0 0 0 .72-1.29 10.33 10.33 0 0 0 .47-1.35 7.85 7.85 0 0 0-1.38.31 15.8 15.8 0 0 0-2.45.95 14.27 14.27 0 0 0-2.45 1.47 3.42 3.42 0 0 0-1.38 1.86c-.09.25.1.5.56.78a3.83 3.83 0 0 0 1.95.41 1.74 1.74 0 0 0 .32-.03 1.65 1.65 0 0 1 .31-.03c-.04 0 .06-.07.31-.22s.57-.36.95-.63a9.59 9.59 0 0 0 1.13-.97 5.45 5.45 0 0 0 .94-1.26zm7.73-17.88a1.51 1.51 0 0 0-1.16.98 8.4 8.4 0 0 0-.73 1.97 2.86 2.86 0 0 0-.12.78 3.5 3.5 0 0 1-.06.66 24.05 24.05 0 0 0 1.79-2.45 6.28 6.28 0 0 0 .66-1.32c.08-.33.06-.52-.07-.56a1.04 1.04 0 0 0-.31-.06zM273.5 59.6a3.65 3.65 0 0 0-1.95.56 13.8 13.8 0 0 0-2.51 1.8 30.24 30.24 0 0 0-3.52 3.73 18.66 18.66 0 0 0 2.39-.31 7.99 7.99 0 0 0 2.48-.91 6.7 6.7 0 0 0 2.04-1.83 5.93 5.93 0 0 0 1.07-3.04zm-55.75 6.53c-.54.75-1.07 1.53-1.57 2.33s-.95 1.56-1.32 2.29a19.26 19.26 0 0 0-.91 2.01 4.38 4.38 0 0 0-.35 1.42c0 .29.13.43.38.43a3.9 3.9 0 0 0 1.6-.62 24.57 24.57 0 0 0 2.42-1.6q1.32-.98 2.73-2.17c.94-.8 1.79-1.57 2.54-2.33.22-.33.41-.68.6-1.03s.41-.73.66-1.1a2.85 2.85 0 0 1 .44-.57 3.95 3.95 0 0 1 .63-.5 2.93 2.93 0 0 1 1-.38c.09-.46.17-.96.25-1.5a9.65 9.65 0 0 0 .13-1.51 3.08 3.08 0 0 0-.28-1.39 1.05 1.05 0 0 0-1.04-.56 3.71 3.71 0 0 0-1.85.62 12.8 12.8 0 0 0-2.1 1.64 29.78 29.78 0 0 0-2.11 2.2c-.7.79-1.31 1.57-1.85 2.32zm25.71-21.72a1.04 1.04 0 0 1-.78.47 1.1 1.1 0 0 1-.85-.31 2.12 2.12 0 0 1-.57-.98 3.03 3.03 0 0 1 0-1.5 2.89 2.89 0 0 0 .13-1.2 3.49 3.49 0 0 0-.28-1 1.8 1.8 0 0 0-.73-.82 4.02 4.02 0 0 0-1.57-.5c-.5-.04-.85-.07-1.06-.07a10.45 10.45 0 0 0-5.35 2.26 56.33 56.33 0 0 0-6.66 5.6q-3.52 3.39-7.2 7.6t-7 8.35q-3.33 4.15-6.06 7.76t-4.37 5.88l-1.29 1.98a5.26 5.26 0 0 0-.47.78.6.6 0 0 1-.5.24h-.12a3.25 3.25 0 0 1-2.96-2.25q-.75-2.07.94-5.72l.66-1.38c.22-.46.5-.94.79-1.45.46-.79 1.17-1.95 2.14-3.48l3.1-4.97s2.2-3.56 3.27-5.34a59.17 59.17 0 0 0 2.61-4.68 14.72 14.72 0 0 0 .82-1.95q-3.4 3.4-6.88 7.45t-6.6 7.95q-3.11 3.9-5.66 7.29t-4.11 5.53l-1.3 1.98a5.26 5.26 0 0 0-.46.78.6.6 0 0 1-.5.24h-.13a3.25 3.25 0 0 1-2.95-2.25q-.76-2.07.94-5.72l.66-1.38c.23-.46.5-.94.79-1.45.46-.79 1.17-1.95 2.13-3.48l3.11-4.97c1.11-1.79 2.2-3.56 3.27-5.34s1.94-3.34 2.6-4.68a11.37 11.37 0 0 0 1.08-2.77 3.51 3.51 0 0 0 .03-1.54 1.01 1.01 0 0 0-.5-.69 1.54 1.54 0 0 0-.6-.15 7.92 7.92 0 0 0-4.12 1.76q-2.35 1.7-5 3.83-2.13 1.75-4.52 3.58a34.62 34.62 0 0 1-4.9 3.14 15.2 15.2 0 0 1-7.04 1.95 11.04 11.04 0 0 1-3.52-.56 3.27 3.27 0 0 1-.72-.26 9.08 9.08 0 0 1-1.42-.78 11.64 11.64 0 0 1-1.66-1.35 7.78 7.78 0 0 1-1.48-2.01 8.3 8.3 0 0 1-.19-6.6 7.89 7.89 0 0 1 2.58-3.77 8.64 8.64 0 0 1 4.4-1.7 9.07 9.07 0 0 1 1.7-.1 10.99 10.99 0 0 1 1.5.16 5.42 5.42 0 0 1 1.08.13 7.29 7.29 0 0 1 1.03.34 1.8 1.8 0 0 1 .85.72 1.02 1.02 0 0 1 .07.92 1.17 1.17 0 0 1-.63.6 2.26 2.26 0 0 1-1.1.12 3.07 3.07 0 0 1-1.35-.5 4.4 4.4 0 0 0-.95-.63 4.64 4.64 0 0 0-.94-.4 2.45 2.45 0 0 0-1-.1h-.13a6.5 6.5 0 0 0-5.9 4.65 6.76 6.76 0 0 0 .12 5.6 4.95 4.95 0 0 0 1.29 1.72c.52.44 1 .83 1.47 1.16a6.95 6.95 0 0 0 1.76.88h.06q4.21 1.51 9.56-1.32a34.23 34.23 0 0 0 4.74-3.04q2.36-1.8 4.5-3.5c1.04-.87 2.06-1.7 3.04-2.47a26.84 26.84 0 0 1 2.83-1.98 11.85 11.85 0 0 1 2.57-1.2 4.57 4.57 0 0 1 2.36-.12 3.42 3.42 0 0 1 2.83 2.26c.42 1.42 0 3.35-1.26 5.78q-.37.81-2.17 4.05t-5.75 8.96a54.3 54.3 0 0 0-5.18 8.73c-.98 2.27-1 3.71-.03 4.34q.7-1.2 2.83-4.4t5.21-7.42q1.57-2.2 3.49-4.74t4.05-5.19q2.14-2.63 4.43-5.18t4.56-4.8a6.58 6.58 0 0 1 1.26-.76 2.04 2.04 0 0 1 1.94.13 5.17 5.17 0 0 1 .5.43 2.39 2.39 0 0 1 .5 1.45 10.07 10.07 0 0 1-1.38 4.4q-.38.81-2.17 4.05t-5.75 8.96a59.63 59.63 0 0 0-5.15 8.73q-1.5 3.4-.06 4.34.5-.82 1.79-2.83c.85-1.34 1.92-2.9 3.17-4.68s2.67-3.74 4.21-5.88 3.18-4.3 4.9-6.47q3.59-4.46 6.79-7.95t6.03-6.06a37.7 37.7 0 0 1 6.29-4.65 12.03 12.03 0 0 1 5.78-1.76h.6a5.16 5.16 0 0 1 1.13.16 8.64 8.64 0 0 1 1.41.47 4.33 4.33 0 0 1 1.38.94 4.46 4.46 0 0 1 1.2 1.82.96.96 0 0 1 .12.44c.13.38.23.76.32 1.13a3.71 3.71 0 0 1 .1 1.13 1.74 1.74 0 0 1-.41 1.07zm-107.3 26.56a29.64 29.64 0 0 1-4.04 3.61 14 14 0 0 1-2.24 1.39 4.88 4.88 0 0 1-2.11.53 2.34 2.34 0 0 1-.94-.19 2 2 0 0 1-.76-.56 2.65 2.65 0 0 1-.54-.88 3.98 3.98 0 0 1-.22-1.45 5.79 5.79 0 0 1 .07-.86l-.68.55c-.63.5-1.33 1-2.1 1.54a16 16 0 0 1-2.43 1.35 4.74 4.74 0 0 1-2.2.5 2.56 2.56 0 0 1-1-.32 1.8 1.8 0 0 1-.72-.84 2.81 2.81 0 0 1-.22-1.1 4.89 4.89 0 0 1 .22-1.76l.4-1.4a32.26 32.26 0 0 1-2.95 2.27c-.75.5-1.53.98-2.32 1.45a13.51 13.51 0 0 1-2.39 1.1 8.6 8.6 0 0 1-2.39.47 4.87 4.87 0 0 1-2.2-.38 3.33 3.33 0 0 1-1.57-2.13 5.52 5.52 0 0 1-.15-1.55l-.98.8c-.63.5-1.33 1-2.1 1.53a16.89 16.89 0 0 1-2.4 1.35 4.56 4.56 0 0 1-2.16.5 2.02 2.02 0 0 1-1.35-.53 2.83 2.83 0 0 1-.69-1.16 4.4 4.4 0 0 1-.19-1.54c.01-.24.03-.49.06-.72l-.69.57a24.5 24.5 0 0 1-2.1 1.53A18.08 18.08 0 0 1 87.66 76a4.57 4.57 0 0 1-2.17.5 2.02 2.02 0 0 1-1.35-.54 2.86 2.86 0 0 1-.7-1.2 4.5 4.5 0 0 1-.18-1.53 8.98 8.98 0 0 1 .22-1.63 15 15 0 0 1 1.16-2.96 63.9 63.9 0 0 1 3.58-6.22l1.1-1.63a1.3 1.3 0 0 0 .32-1.07.43.43 0 0 0-.2-.32 1.1 1.1 0 0 0-1.22-.03 7.61 7.61 0 0 0-1.54.91c-.63.47-1.28.99-1.95 1.57a44.17 44.17 0 0 0-6.28 7.1 42.3 42.3 0 0 0-2.51 4.16 16.93 16.93 0 0 0-.7 2.7c-.08.38-.22.54-.43.5a1.96 1.96 0 0 1-.44-.13 1.39 1.39 0 0 1-.6-.53 2.82 2.82 0 0 1-.41-.91 1.37 1.37 0 0 1 0-.57q.15-.64.4-1.46l-.47.36c-.6.5-1.28.98-2.04 1.48a20.4 20.4 0 0 1-2.35 1.35 5.03 5.03 0 0 1-2.17.6 2.17 2.17 0 0 1-2.05-1.03 4.62 4.62 0 0 1-.6-2.36 6.4 6.4 0 0 1 .38-2.14 29.1 29.1 0 0 1-4.03 3.62 14.04 14.04 0 0 1-2.24 1.38 4.88 4.88 0 0 1-2.11.53 2.35 2.35 0 0 1-.95-.19 2 2 0 0 1-.76-.56 2.68 2.68 0 0 1-.53-.88 3.98 3.98 0 0 1-.22-1.45 9.94 9.94 0 0 1 .78-3.38 27.26 27.26 0 0 1 2.99-5.28 23.8 23.8 0 0 1 5.63-5.87 9.33 9.33 0 0 1 5-2.04 2.7 2.7 0 0 1 2.17.85 3.43 3.43 0 0 1 .72 2.3 13.11 13.11 0 0 1-.88 4.2h.19a3.8 3.8 0 0 0 .44.12 1.46 1.46 0 0 0 .28.22.46.46 0 0 1 .16.4 4.2 4.2 0 0 1-.75 1.33c-.5.71-1.05 1.53-1.65 2.48a32.46 32.46 0 0 0-1.66 2.91 6.11 6.11 0 0 0-.75 2.58c0 .59.28.88.82.88a4.48 4.48 0 0 0 1.92-.66 25.63 25.63 0 0 0 2.42-1.48q1.37-.94 2.89-2.19l.05-.03q.31-.92.7-1.99a49.56 49.56 0 0 1 4.11-8.23l.66-1.07a43.07 43.07 0 0 1 1.1-1.73l.38-.6a.06.06 0 0 0 .06-.06l.12-.13a.5.5 0 0 1 .63-.25l.63.31a1.37 1.37 0 0 1 .6.6 1.92 1.92 0 0 1 .19 1.04 3.96 3.96 0 0 1-.53 1.57c-.6.92-1.03 1.66-1.32 2.2a60.4 60.4 0 0 0-1.64 2.52 55.26 55.26 0 0 1 4.37-4.87 21.26 21.26 0 0 1 2.14-1.89 7.36 7.36 0 0 1 1.91-1.1 3.99 3.99 0 0 1 2.55-.25 2.2 2.2 0 0 1 1.44 1.22 3.98 3.98 0 0 1 .16 2.33 8.85 8.85 0 0 1-1.32 3.11l-.57.91-.84 1.29-.95 1.44-.84 1.32-.41.6a3.94 3.94 0 0 0-.41.73 16.64 16.64 0 0 0-1.26 2.38 13.82 13.82 0 0 0-.5 1.39 5.61 5.61 0 0 0-.16.94.5.5 0 0 0 .41.57 2.75 2.75 0 0 0 1.86-.44 20.77 20.77 0 0 0 2.48-1.51q1.43-1 3.1-2.3a11.62 11.62 0 0 1 .57-1.44 42.22 42.22 0 0 1 2.9-5.22l1.35-2.1.47-.76a6.63 6.63 0 0 1 .47-.69q.57-.88 1.13-1.7l1.2-1.7.06-.06a4.17 4.17 0 0 1 .31-.29.38.38 0 0 1 .44-.03l.63.32a1.2 1.2 0 0 1 .57.6 1.93 1.93 0 0 1 .12 1 4 4 0 0 1-.63 1.54l-.81 1.32c-.21.34-.38.6-.5.82a.87.87 0 0 1-.2.25 6.45 6.45 0 0 0-.56.85c-.29.48-.65 1.04-1.07 1.67s-.84 1.3-1.28 2l-1.17 1.9v.05l-.25.44c-.29.47-.55.9-.78 1.32a11.34 11.34 0 0 0-.6 1.26 8.77 8.77 0 0 0-.57 1.38 3.78 3.78 0 0 0-.12.94.54.54 0 0 0 .37.57 2.85 2.85 0 0 0 1.89-.44 19.32 19.32 0 0 0 2.5-1.5q1.52-1 3.15-2.33l.03-.18a16.03 16.03 0 0 1 2.36-5.34 27.52 27.52 0 0 1 3.9-5.03 16.49 16.49 0 0 1 1.79-1.67 9.38 9.38 0 0 1 2.01-1.25 6.4 6.4 0 0 1 2.07-.57 4.13 4.13 0 0 1 2.05.35 2.24 2.24 0 0 1 1 1.07 3.1 3.1 0 0 1 .25 1.6 7.33 7.33 0 0 1-.76 2.48 7.25 7.25 0 0 1-2 2.51 11.07 11.07 0 0 1-3.06 1.57 11.4 11.4 0 0 1-4.8.44 1.22 1.22 0 0 0-.07.13 18.29 18.29 0 0 0-2 3.27 7.51 7.51 0 0 0-.89 2.45 1.5 1.5 0 0 0 .7 1.7 3.5 3.5 0 0 0 2.29.15 13.03 13.03 0 0 0 3.27-1.16 24.76 24.76 0 0 0 3.7-2.3 25.94 25.94 0 0 0 3-2.58l.08-.2q.66-1.58 1.54-3.4a72.3 72.3 0 0 1 2.83-5.15c.3-.42.57-.85.85-1.3s.57-.88.91-1.34a77.56 77.56 0 0 1 4.87-6.54q2.8-3.4 6.44-7.16a1.19 1.19 0 0 1 .31-.22.47.47 0 0 1 .44.03q.25.19.57.47a1.52 1.52 0 0 1 .44.72 1.79 1.79 0 0 1-.06 1.04 4.88 4.88 0 0 1-.82 1.41q-1.7 1.95-3.52 4.15c-1.04 1.3-2.22 2.77-3.52 4.43s-2.6 3.43-3.9 5.31q-1.57 2.26-3.01 4.59a49.2 49.2 0 0 0-2.52 4.52q-.75 1.64-1.32 3.02l-.19.56a4.38 4.38 0 0 0-.22 1.07.54.54 0 0 0 .41.63 2.85 2.85 0 0 0 1.89-.44 19.32 19.32 0 0 0 2.51-1.5q1.51-1 3.14-2.33l.27-.75a27.2 27.2 0 0 1 2.99-5.28 23.82 23.82 0 0 1 5.63-5.86 9.33 9.33 0 0 1 5-2.05 2.7 2.7 0 0 1 2.16.85 3.43 3.43 0 0 1 .73 2.3 13.12 13.12 0 0 1-.88 4.2h.19a3.73 3.73 0 0 0 .44.12 1.43 1.43 0 0 0 .28.22.46.46 0 0 1 .16.41 4.2 4.2 0 0 1-.75 1.32c-.5.71-1.05 1.54-1.66 2.48a32.46 32.46 0 0 0-1.65 2.92 6.1 6.1 0 0 0-.75 2.57c0 .6.27.88.82.88a4.47 4.47 0 0 0 1.91-.66 25.38 25.38 0 0 0 2.42-1.47c.92-.63 1.89-1.36 2.9-2.2a3.37 3.37 0 0 1 .43-.25l.35-.22a.55.55 0 0 1 .28-.1.17.17 0 0 1 .19.2l.06.12a1.27 1.27 0 0 1-.22.57 4.83 4.83 0 0 1-.9 1l-1.23.97c-.6.47-1.3.98-2.05 1.48a20.32 20.32 0 0 1-2.35 1.35 5.02 5.02 0 0 1-2.17.6 2.17 2.17 0 0 1-2.05-1.04 4.62 4.62 0 0 1-.6-2.35 6.38 6.38 0 0 1 .38-2.14zm-4.25-4.84c-.54.76-1.07 1.53-1.57 2.33s-.94 1.56-1.32 2.29a19.48 19.48 0 0 0-.91 2.01 4.4 4.4 0 0 0-.35 1.42c0 .29.13.43.38.43a3.9 3.9 0 0 0 1.6-.62 24.33 24.33 0 0 0 2.42-1.6q1.32-.98 2.73-2.17c.95-.8 1.8-1.57 2.55-2.33.21-.33.4-.68.6-1.03s.4-.73.66-1.1a2.85 2.85 0 0 1 .44-.57 3.96 3.96 0 0 1 .63-.5 2.91 2.91 0 0 1 1-.38c.09-.46.17-.96.25-1.5a9.53 9.53 0 0 0 .13-1.51 3.08 3.08 0 0 0-.28-1.38 1.05 1.05 0 0 0-1.04-.57 3.71 3.71 0 0 0-1.86.63 12.84 12.84 0 0 0-2.1 1.63 29.58 29.58 0 0 0-2.1 2.2c-.69.8-1.3 1.57-1.85 2.33zm-15.38-6.53a3.65 3.65 0 0 0-1.95.56 13.84 13.84 0 0 0-2.51 1.8 30.32 30.32 0 0 0-3.52 3.73 18.7 18.7 0 0 0 2.39-.31 8 8 0 0 0 2.48-.91 6.7 6.7 0 0 0 2.04-1.83 5.93 5.93 0 0 0 1.07-3.04zm-11.81-3.33c-.38.41-.67.59-.88.5h-.13a.76.76 0 0 1-.28-.57 4.29 4.29 0 0 1 0-.79 3.59 3.59 0 0 1 .12-.72 1.82 1.82 0 0 0 .1-.44c0-.08.02-.12.06-.12a8.74 8.74 0 0 1 .44-1.07 5.54 5.54 0 0 1 .53-.79 1.45 1.45 0 0 1 .8-.47 1.01 1.01 0 0 1 .9.16 1.28 1.28 0 0 1 .44.78 2.4 2.4 0 0 1-.1 1.14 2.7 2.7 0 0 1-.8 1.19 4.41 4.41 0 0 1-.45.38l-.38.37a4.39 4.39 0 0 0-.37.44zm-44.5 9.86c-.55.75-1.08 1.53-1.58 2.33s-.94 1.56-1.32 2.29a19.06 19.06 0 0 0-.91 2.01 4.38 4.38 0 0 0-.35 1.42c0 .29.13.43.38.43a3.89 3.89 0 0 0 1.6-.62 24.45 24.45 0 0 0 2.42-1.6q1.32-.98 2.73-2.17c.95-.8 1.8-1.57 2.55-2.33.21-.33.4-.68.6-1.03s.4-.73.66-1.1a2.88 2.88 0 0 1 .44-.57 4 4 0 0 1 .63-.5 2.92 2.92 0 0 1 1-.38l.25-1.5a9.65 9.65 0 0 0 .12-1.51 3.08 3.08 0 0 0-.28-1.38 1.05 1.05 0 0 0-1.04-.57 3.72 3.72 0 0 0-1.85.63 12.84 12.84 0 0 0-2.1 1.63 29.58 29.58 0 0 0-2.1 2.2c-.7.8-1.32 1.57-1.86 2.33zm-43.67 8.74a.77.77 0 0 1 0-.63 42.38 42.38 0 0 1 1.48-4.75 49.69 49.69 0 0 1 3.33-7.07 87.05 87.05 0 0 1 5.78-8.89 88.37 88.37 0 0 1 8.96-10.27.55.55 0 0 1 .7-.13 2.27 2.27 0 0 1 .53.41 1.9 1.9 0 0 1 .44.72 1.74 1.74 0 0 1-.04 1.07 4.25 4.25 0 0 1-.88 1.45q-4.77 5.52-8.67 10.8-1.7 2.27-3.33 4.72a77.03 77.03 0 0 0-2.98 4.84 51.13 51.13 0 0 0-2.33 4.62 15.37 15.37 0 0 0-1.23 4.05c-.08.34-.22.5-.4.5a.55.55 0 0 1-.41-.13h-.07a1.53 1.53 0 0 1-.5-.47 2.5 2.5 0 0 1-.37-.85zm7.1 6.28a29.21 29.21 0 0 1-11.71-2.3 20.48 20.48 0 0 1-8.14-6.37A18.43 18.43 0 0 1 .19 63.6a25.56 25.56 0 0 1 1.03-10.69c0-.03.2-.57.6-1.6a21.47 21.47 0 0 1 1.92-3.6 19.67 19.67 0 0 1 1.63-2.24 18.87 18.87 0 0 1 1.89-1.91 16.07 16.07 0 0 1 2.6-1.83 13.59 13.59 0 0 1 2.86-1.2 8.02 8.02 0 0 1 .94-.25 10.34 10.34 0 0 1 1.98-.22 8.83 8.83 0 0 1 2.49.32 5.48 5.48 0 0 1 2.38 1.35 9.27 9.27 0 0 1 1.6 2.17 3.76 3.76 0 0 1 .35 2.67 3.89 3.89 0 0 1-.98 1.82c-.52.59-.97 1.1-1.35 1.5l-.06.07a5.28 5.28 0 0 1-.79.63 1.4 1.4 0 0 1-.97.25 1.12 1.12 0 0 1-1.1-1.2c-.02-.71.53-1.36 1.67-1.95a5 5 0 0 0 .88-.69 7.53 7.53 0 0 0 .62-.72 1.44 1.44 0 0 0 .32-.91 3.47 3.47 0 0 0-.16-1.38 3.04 3.04 0 0 0-.9-1.32 4.02 4.02 0 0 0-2.02-1.13 8.65 8.65 0 0 0-2.13-.22 7.62 7.62 0 0 0-1.7.22l-.7.19a12.67 12.67 0 0 0-5.12 2.89A19.6 19.6 0 0 0 4.8 48.4a14.05 14.05 0 0 0-1.1 1.85c-.28.57-.51 1.08-.72 1.54q-.32.76-.57 1.51a23.8 23.8 0 0 0-1 10.09A17.29 17.29 0 0 0 4.8 71.7a18.99 18.99 0 0 0 6.22 5.35 24.03 24.03 0 0 0 7.76 2.57 27.43 27.43 0 0 0 8.48-.06 30.77 30.77 0 0 0 8.36-2.58 31.91 31.91 0 0 0 7.39-4.84 25.3 25.3 0 0 0 5.59-6.97 39.65 39.65 0 0 0 2.58-6 25.62 25.62 0 0 0 1.13-4.9 15.09 15.09 0 0 0 0-3.86 12.95 12.95 0 0 0-.76-2.96 8.65 8.65 0 0 0-3.9-4.46l-.05-.13a6.08 6.08 0 0 0-.98-.5l-.78-.31a2.67 2.67 0 0 0-.7-.25q-6.46-2.02-12.88 2.45l-1.28.94a9.04 9.04 0 0 0-1.1.94 4.89 4.89 0 0 0-.63.92 5.06 5.06 0 0 0-.38.9 4.3 4.3 0 0 0-.25 1.01 2.92 2.92 0 0 1-.6 1.29 2.33 2.33 0 0 1-.88.66 1.08 1.08 0 0 1-.88 0 1.15 1.15 0 0 1-.6-.7 1.64 1.64 0 0 1 0-.9 2.97 2.97 0 0 1 .38-.85 4.24 4.24 0 0 1 .69-.88.88.88 0 0 1 .19-.25l.44-.44a17.63 17.63 0 0 1 1.76-1.76 25.59 25.59 0 0 1 2.45-1.89 17.34 17.34 0 0 1 6.1-2.89 14.71 14.71 0 0 1 7.85.26l1.04.37a10.76 10.76 0 0 1 2.16 1.13 13.47 13.47 0 0 1 2.7 2.08 12.28 12.28 0 0 1 2.52 3.58q3.14 6.54-1.13 16.4a26.31 26.31 0 0 1-4.96 7.72 27.4 27.4 0 0 1-6.79 5.28 29.76 29.76 0 0 1-8.2 3.02 44.18 44.18 0 0 1-9.2.94z"/>
</svg>
